<svg xmlns="http://www.w3.org/2000/svg" viewBox="0 0 28 20">
  <rect width="28" height="20" rx="2" fill="#fff"/>
  <path fill="#d94b4b" d="M0 0h28v2H0zm0 4h28v2H0zm0 4h28v2H0zm0 4h28v2H0zm0 4h28v2H0z"/>
  <path fill="#315b9d" d="M0 0h12v10H0z"/>
  <g fill="#fff">
    <circle cx="2" cy="2" r=".55"/><circle cx="5" cy="2" r=".55"/><circle cx="8" cy="2" r=".55"/><circle cx="11" cy="2" r=".55"/>
    <circle cx="3.5" cy="4.5" r=".55"/><circle cx="6.5" cy="4.5" r=".55"/><circle cx="9.5" cy="4.5" r=".55"/>
    <circle cx="2" cy="7" r=".55"/><circle cx="5" cy="7" r=".55"/><circle cx="8" cy="7" r=".55"/><circle cx="11" cy="7" r=".55"/>
  </g>
</svg>
